#tb 0: 1/25
0,          0,          0,        1,   196608, 0x4d2e53c4
0,          1,          1,        1,   196608, 0x795e1dcc
0,          2,          2,        1,   196608, 0xe4268800
